<?xml version="1.0" standalone="no"?>
<!DOCTYPE svg PUBLIC "-//W3C//DTD SVG 20010904//EN"
 "http://www.w3.org/TR/2001/REC-SVG-20010904/DTD/svg10.dtd">
<svg version="1.0" xmlns="http://www.w3.org/2000/svg"
 width="371.000000pt" height="296.000000pt" viewBox="0 0 371.000000 296.000000"
 preserveAspectRatio="xMidYMid meet">
<metadata>
Created by potrace 1.14, written by Peter Selinger 2001-2017
</metadata>
<g transform="translate(0.000000,296.000000) scale(0.100000,-0.100000)"
fill="#000000" stroke="none">
<path d="M1601 2804 c-406 -68 -780 -350 -969 -729 -151 -305 -178 -680 -72
-1004 67 -206 171 -375 329 -532 262 -263 575 -393 946 -393 371 0 684 130
946 393 262 261 391 574 391 946 0 364 -131 684 -387 940 -202 203 -456 336
-725 380 -117 18 -344 18 -459 -1z m385 -215 c395 -55 730 -315 883 -687 61
-148 76 -229 75 -422 0 -157 -3 -185 -27 -273 -54 -202 -158 -377 -310 -524
-219 -211 -471 -313 -772 -313 -229 0 -430 61 -625 189 -81 52 -231 201 -290
287 -70 101 -136 243 -167 361 -24 88 -27 116 -27 273 0 152 3 187 23 263 87
333 296 594 593 740 200 99 427 136 644 106z"/>
<path d="M1728 2540 c-435 -49 -792 -347 -912 -764 -143 -491 88 -1012 549
-1241 523 -260 1159 -49 1415 470 78 158 84 145 -64 145 l-126 0 -21 -42 c-81
-159 -221 -293 -392 -374 -119 -55 -184 -69 -342 -69 -168 0 -227 14 -372 85
-204 101 -367 300 -427 525 -23 85 -31 246 -17 330 66 390 372 672 760 701
337 25 665 -170 805 -478 18 -40 36 -83 39 -95 l5 -23 -369 0 -369 0 5 23 c12
56 74 431 72 434 -2 1 -117 -144 -256 -325 l-252 -327 151 -3 c82 -1 150 -6
150 -11 0 -5 -27 -134 -60 -288 -33 -153 -60 -284 -60 -292 0 -8 97 108 216
257 l215 272 415 0 414 0 0 33 c0 68 -23 215 -46 295 -98 337 -360 607 -694
715 -133 43 -301 61 -432 47z"/>
</g>
</svg>
